<svg width="24" height="30" viewBox="0 0 24 30" fill="none" xmlns="http://www.w3.org/2000/svg">
<path d="M20.0013 15.8568C20.0158 14.7139 20.3155 13.5933 20.8724 12.5992C21.4293 11.6052 22.2254 10.77 23.1866 10.1714C22.576 9.28798 21.7705 8.56096 20.834 8.04809C19.8975 7.53522 18.8559 7.25062 17.7918 7.21689C15.522 6.97554 13.3215 8.5928 12.1649 8.5928C10.9859 8.5928 9.20502 7.24086 7.28734 7.28083C6.04694 7.32142 4.83807 7.68682 3.77851 8.34143C2.71896 8.99603 1.84486 9.91751 1.24138 11.0161C-1.37278 15.6011 0.577144 22.3394 3.08129 26.0456C4.33416 27.8604 5.79841 29.8875 7.71435 29.8156C9.58922 29.7369 10.2894 28.6045 12.5526 28.6045C14.7947 28.6045 15.4516 29.8156 17.4065 29.7699C19.4183 29.7369 20.6858 27.9471 21.8947 26.1151C22.7949 24.822 23.4876 23.3928 23.9472 21.8805C22.7784 21.3798 21.7809 20.5415 21.0792 19.4703C20.3775 18.3991 20.0026 17.1424 20.0013 15.8568Z" fill="#313D5B"/>
<path d="M16.309 4.77969C17.4059 3.44571 17.9463 1.73111 17.8154 0C16.1396 0.17831 14.5916 0.989698 13.4798 2.27249C12.9362 2.89917 12.5199 3.62824 12.2547 4.418C11.9894 5.20777 11.8804 6.04276 11.9339 6.87523C12.7721 6.88397 13.6014 6.69992 14.3592 6.33694C15.1171 5.97395 15.7837 5.4415 16.309 4.77969Z" fill="#313D5B"/>
</svg>
