<svg width="38" height="33" viewBox="0 0 38 33" fill="none" xmlns="http://www.w3.org/2000/svg">
<path d="M9.94531 0.0703125L5 5.00391L3.05469 3.07031L0.945312 5.17969L5 9.24609L12.0547 2.17969L9.94531 0.0703125ZM17 3V6H38V3H17ZM9.94531 12.0703L5 17.0039L3.05469 15.0703L0.945312 17.1797L5 21.2461L12.0547 14.1797L9.94531 12.0703ZM17 15V18H38V15H17ZM3.5 24C2.66797 24 2 24.668 2 25.5V31.5C2 32.332 2.66797 33 3.5 33H9.5C10.332 33 11 32.332 11 31.5V25.5C11 24.668 10.332 24 9.5 24H3.5ZM5 27H8V30H5V27ZM17 27V30H38V27H17Z" fill="#00bfff"/>
</svg>
