<svg width="41" height="45" viewBox="0 0 41 45" fill="none" xmlns="http://www.w3.org/2000/svg">
<path d="M4.55556 0C2.05237 0 0 2.02734 0 4.5V31.5C0 33.9727 2.05237 36 4.55556 36H6.07407V37.5C6.07407 39.9727 8.12645 42 10.6296 42H21.2593V39H10.6296C9.77546 39 9.11111 38.3438 9.11111 37.5V10.5C9.11111 9.65625 9.77546 9 10.6296 9H31.8889C32.7431 9 33.4074 9.65625 33.4074 10.5V27H36.4444V10.5C36.4444 8.02734 34.3921 6 31.8889 6H30.3704V4.5C30.3704 2.02734 28.318 0 25.8148 0H4.55556ZM4.55556 3H25.8148C26.669 3 27.3333 3.65625 27.3333 4.5V6H10.6296C8.12645 6 6.07407 8.02734 6.07407 10.5V33H4.55556C3.70139 33 3.03704 32.3438 3.03704 31.5V4.5C3.03704 3.65625 3.70139 3 4.55556 3ZM21.2593 15C17.9256 15 15.1852 17.707 15.1852 21C15.1852 22.6055 15.8495 24.0703 16.8935 25.1484C14.0819 26.6836 12.1481 29.6133 12.1481 33H15.1852C15.1852 29.6719 17.89 27 21.2593 27C24.6285 27 27.3333 29.6719 27.3333 33H30.3704C30.3704 29.6133 28.4366 26.6836 25.625 25.1484C26.669 24.0703 27.3333 22.6055 27.3333 21C27.3333 17.707 24.5929 15 21.2593 15ZM21.2593 18C22.9557 18 24.2963 19.3242 24.2963 21C24.2963 22.6758 22.9557 24 21.2593 24C19.5628 24 18.2222 22.6758 18.2222 21C18.2222 19.3242 19.5628 18 21.2593 18ZM33.4074 30V36H24.2963V39H33.4074V45L41 37.5L33.4074 30Z" fill="#00bfff"/>
</svg>
