<svg width="36" height="36" viewBox="0 0 36 36" fill="none" xmlns="http://www.w3.org/2000/svg">
<path d="M10.5 0C8.01562 0 6 2.01562 6 4.5V15.5508C6.9375 15.2109 7.94531 15 9 15V4.5C9 3.66797 9.66797 3 10.5 3H24V12H33V31.5C33 32.332 32.332 33 31.5 33H20.5664C20.8242 33.9727 21 34.9688 21 36H31.5C33.9844 36 36 33.9844 36 31.5V9.87891L26.1211 0H10.5ZM27 5.12109L30.8789 9H27V5.12109ZM9 18C5.70703 18 3 20.707 3 24C3 25.6055 3.65625 27.0703 4.6875 28.1484C1.91016 29.6836 0 32.6133 0 36H3C3 32.6719 5.67188 30 9 30C12.3281 30 15 32.6719 15 36H18C18 32.6133 16.0898 29.6836 13.3125 28.1484C14.3438 27.0703 15 25.6055 15 24C15 20.707 12.293 18 9 18ZM9 21C10.6758 21 12 22.3242 12 24C12 25.6758 10.6758 27 9 27C7.32422 27 6 25.6758 6 24C6 22.3242 7.32422 21 9 21Z" fill="#00bfff"/>
</svg>
