<svg width="30" height="64" viewBox="0 0 30 64" fill="none" xmlns="http://www.w3.org/2000/svg">
<path d="M22.8355 63.6062C22.4592 63.7856 22.0088 63.6259 21.8295 63.2497L18.9069 57.1181C18.7276 56.7418 18.8872 56.2914 19.2635 56.112C19.6397 55.9327 20.0901 56.0923 20.2695 56.4686L22.8673 61.9189L28.3176 59.3211C28.6939 59.1417 29.1443 59.3014 29.3237 59.6776C29.503 60.0539 29.3434 60.5043 28.9671 60.6836L22.8355 63.6062ZM4.82895 1.36277C1.3721 8.96332 1.33296 14.9614 3.01462 20.0786C4.70968 25.2367 8.17509 29.5772 11.8998 33.8214C15.5876 38.0236 19.5657 42.1642 22.0308 46.8043C24.5285 51.5057 25.4988 56.7536 23.2221 63.177L21.7994 62.6728C23.9163 56.6999 23.0243 51.8915 20.6978 47.5125C18.3388 43.0721 14.5311 39.1081 10.7653 34.8171C7.03635 30.568 3.38045 26.0267 1.58062 20.5499C-0.232613 15.0323 -0.140229 8.64252 3.45495 0.737851L4.82895 1.36277Z" fill="#E7ECF3"/>
</svg>
