<svg width="42" height="42" viewBox="0 0 42 42" fill="none" xmlns="http://www.w3.org/2000/svg">
<path d="M4.5 0C2.02734 0 0 2.02734 0 4.5V10.5C0 12.9727 2.02734 15 4.5 15H6V18H9V15H10.5C12.9727 15 15 12.9727 15 10.5V4.5C15 2.02734 12.9727 0 10.5 0H4.5ZM9 18V21H12V18H9ZM9 21H6V24H9V21ZM6 21V18H3V21H6ZM31.5 0C29.0273 0 27 2.02734 27 4.5V10.5C27 12.9727 29.0273 15 31.5 15H33V18H36V15H37.5C39.9727 15 42 12.9727 42 10.5V4.5C42 2.02734 39.9727 0 37.5 0H31.5ZM36 18V21H39V18H36ZM36 21H33V24H36V21ZM36 24V27H39V24H36ZM36 27H33V30H36V27ZM33 27V24H30V27H33ZM4.5 3H10.5C11.3438 3 12 3.65625 12 4.5V10.5C12 11.3438 11.3438 12 10.5 12H4.5C3.65625 12 3 11.3438 3 10.5V4.5C3 3.65625 3.65625 3 4.5 3ZM21 3V6H18V9H21V12H24V3H21ZM31.5 3H37.5C38.3438 3 39 3.65625 39 4.5V10.5C39 11.3438 38.3438 12 37.5 12H31.5C30.6562 12 30 11.3438 30 10.5V4.5C30 3.65625 30.6562 3 31.5 3ZM6 6V9H9V6H6ZM33 6V9H36V6H33ZM15 15V18H24V21H27V15H15ZM18 21V24H15V27H27V24H21V21H18ZM4.5 27C2.02734 27 0 29.0273 0 31.5V37.5C0 39.9727 2.02734 42 4.5 42H10.5C12.9727 42 15 39.9727 15 37.5V31.5C15 29.0273 12.9727 27 10.5 27H4.5ZM4.5 30H10.5C11.3438 30 12 30.6562 12 31.5V37.5C12 38.3438 11.3438 39 10.5 39H4.5C3.65625 39 3 38.3438 3 37.5V31.5C3 30.6562 3.65625 30 4.5 30ZM18 30V39H21V30H18ZM6 33V36H9V33H6ZM27 33V36H30V33H27ZM30 36V39H33V36H30ZM33 36H36V33H33V36ZM36 36V39H39V36H36Z" fill="#00bfff"/>
</svg>
