<svg width="42" height="36" viewBox="0 0 42 36" fill="none" xmlns="http://www.w3.org/2000/svg">
<path d="M4.5 0C3.26953 0 2.09766 0.433593 1.26562 1.26562C0.433593 2.09766 0 3.26953 0 4.5V22.5C0 23.7305 0.433593 24.9023 1.26562 25.7344C2.09766 26.5664 3.26953 27 4.5 27H18V30H9V33H27V34.5C27 35.332 27.668 36 28.5 36H40.5C41.332 36 42 35.332 42 34.5V13.5C42 12.668 41.332 12 40.5 12H39V4.5C39 3.26953 38.5664 2.09766 37.7344 1.26562C36.9023 0.433593 35.7305 0 34.5 0H4.5ZM4.5 3H34.5C35.0625 3 35.3906 3.16406 35.6133 3.38672C35.8359 3.60938 36 3.9375 36 4.5V12H28.5C27.668 12 27 12.668 27 13.5V24H4.5C3.9375 24 3.60938 23.8359 3.38672 23.6133C3.16406 23.3906 3 23.0625 3 22.5V4.5C3 3.9375 3.16406 3.60938 3.38672 3.38672C3.60938 3.16406 3.9375 3 4.5 3ZM30 15H39V33H30V15ZM21 27H27V30H21V27Z" fill="#00bfff"/>
</svg>
